# xmcd
#
# Track frame offsets: 
#        150
#        68713
#        139141
#        166983
#        197287
#
# Disc length: 3401 seconds
#
# Revision: 0
# Processed by: cddbd v1.5.2PL0 Copyright (c) Steve Scherf et al.
# Submitted via: ExactAudioCopy v0.99pb4
#
DISCID=3c0d4705
DTITLE=The Carter Family And Mother Maybelle With Chet Atkins - Ozark 
DTITLE=Radio
DYEAR=1949
DGENRE=Country
TTITLE0=Program #1 (Audition)
TTITLE1=Program #2 (Audition)
TTITLE2=Program #3
TTITLE3=Program #4
TTITLE4=Program #5
EXTD=
EXTT0=
EXTT1=
EXTT2=
EXTT3=
EXTT4=
PLAYORDER=
